<?xml version="1.0" standalone="no"?>
<!DOCTYPE svg PUBLIC "-//W3C//DTD SVG 20010904//EN"
 "http://www.w3.org/TR/2001/REC-SVG-20010904/DTD/svg10.dtd">
<svg version="1.0" xmlns="http://www.w3.org/2000/svg"
 width="290.000000pt" height="290.000000pt" viewBox="0 0 290.000000 290.000000"
 preserveAspectRatio="xMidYMid meet">
<metadata>
Created by potrace 1.11, written by Peter Selinger 2001-2013
</metadata>
<g transform="translate(0.000000,290.000000) scale(0.100000,-0.100000)"
fill="#000000" stroke="none">
<path d="M2233 2489 c-62 -192 -271 -365 -588 -488 -163 -63 -340 -146 -363
-168 -7 -7 -18 -13 -24 -13 -11 0 -129 -77 -164 -107 -12 -10 -45 -38 -74 -62
-125 -107 -237 -287 -255 -412 -9 -62 -13 -182 -6 -194 3 -5 6 -22 7 -36 0
-14 5 -33 10 -42 9 -15 12 -15 35 6 72 64 74 65 42 17 -38 -57 -175 -336 -189
-385 -1 -5 -23 -59 -48 -119 -25 -59 -46 -112 -46 -117 0 -7 93 -7 130 0 3 1
6 22 7 49 2 26 12 81 23 122 12 41 22 81 22 88 1 6 4 12 8 12 4 0 7 6 7 13 0
10 61 164 69 176 2 2 19 -4 37 -12 59 -28 149 -43 242 -41 50 1 90 3 90 4 0 1
14 3 30 5 62 8 91 13 135 24 25 6 54 14 65 16 58 14 191 76 267 127 74 50 189
164 243 244 22 33 42 61 45 64 3 3 21 37 40 75 19 39 38 72 43 73 4 2 7 10 7
18 0 8 9 34 21 58 11 25 21 51 23 58 1 7 4 18 7 23 4 6 10 24 14 40 5 17 9 35
11 40 25 87 35 125 39 147 2 15 6 35 9 45 6 20 15 71 21 118 1 17 4 30 5 30 1
0 3 14 5 30 1 17 5 53 8 80 16 133 26 449 16 459 -2 2 -14 -27 -26 -65z"/>
</g>
</svg>
